<svg width="15" height="15" viewBox="0 0 15 15" fill="none" xmlns="http://www.w3.org/2000/svg">
<path d="M9.84383 2.34375H5.15633C4.41041 2.34375 3.69504 2.64007 3.16759 3.16751C2.64014 3.69496 2.34383 4.41033 2.34383 5.15625V13.3594C2.34182 13.4697 2.3788 13.5772 2.44825 13.6629C2.5177 13.7487 2.61518 13.8072 2.72352 13.8281H2.81258C2.90646 13.8282 2.9982 13.8001 3.07593 13.7475C3.15365 13.6948 3.21378 13.62 3.24852 13.5328C3.35329 13.2751 3.53213 13.0543 3.76242 12.8983C3.99271 12.7422 4.2641 12.658 4.54226 12.6562H9.84383C10.5897 12.6562 11.3051 12.3599 11.8326 11.8325C12.36 11.305 12.6563 10.5897 12.6563 9.84375V5.15625C12.6563 4.41033 12.36 3.69496 11.8326 3.16751C11.3051 2.64007 10.5897 2.34375 9.84383 2.34375ZM11.7188 9.84375C11.7188 10.341 11.5213 10.8179 11.1697 11.1696C10.818 11.5212 10.3411 11.7188 9.84383 11.7188H4.54226C4.09486 11.7167 3.6566 11.8454 3.28133 12.0891V5.15625C3.28133 4.65897 3.47887 4.18206 3.8305 3.83042C4.18213 3.47879 4.65905 3.28125 5.15633 3.28125H9.84383C10.3411 3.28125 10.818 3.47879 11.1697 3.83042C11.5213 4.18206 11.7188 4.65897 11.7188 5.15625V9.84375ZM8.90633 6.09375H6.09383C5.96951 6.09375 5.85028 6.14314 5.76237 6.23104C5.67446 6.31895 5.62508 6.43818 5.62508 6.5625C5.62508 6.68682 5.67446 6.80605 5.76237 6.89396C5.85028 6.98186 5.96951 7.03125 6.09383 7.03125H8.90633C9.03065 7.03125 9.14988 6.98186 9.23778 6.89396C9.32569 6.80605 9.37508 6.68682 9.37508 6.5625C9.37508 6.43818 9.32569 6.31895 9.23778 6.23104C9.14988 6.14314 9.03065 6.09375 8.90633 6.09375ZM7.50008 7.96875H6.09383C5.96951 7.96875 5.85028 8.01814 5.76237 8.10604C5.67446 8.19395 5.62508 8.31318 5.62508 8.4375C5.62508 8.56182 5.67446 8.68105 5.76237 8.76896C5.85028 8.85686 5.96951 8.90625 6.09383 8.90625H7.50008C7.6244 8.90625 7.74363 8.85686 7.83153 8.76896C7.91944 8.68105 7.96883 8.56182 7.96883 8.4375C7.96883 8.31318 7.91944 8.19395 7.83153 8.10604C7.74363 8.01814 7.6244 7.96875 7.50008 7.96875Z" fill="#FF3B30"/>
</svg>
