<svg width="23" height="17" viewBox="0 0 23 17" fill="none" xmlns="http://www.w3.org/2000/svg">
<path fill-rule="evenodd" clip-rule="evenodd" d="M7.42666 0.774509C4.65765 1.82763 2.29775 3.91357 0.68577 6.73284C-0.335844 8.52008 -0.133761 9.37633 1.96025 12.1274C3.37405 13.9849 5.62015 15.6125 7.74593 16.3198C9.18343 16.7982 9.89046 16.8737 12.1082 16.7854C14.4504 16.692 14.9602 16.581 16.5384 15.8198C19.4329 14.4235 22.9532 10.4065 22.9532 8.50003C22.9532 6.59508 19.4347 2.57894 16.5384 1.17789C14.9001 0.385446 14.522 0.309144 11.8905 0.240655C9.40634 0.176071 8.81364 0.246905 7.42666 0.774509ZM9.28629 3.98571C7.46442 4.94847 6.55192 6.45576 6.55192 8.50263C6.55192 11.4019 8.59905 13.4479 11.4998 13.4479C14.4017 13.4479 16.4478 11.4019 16.4478 8.50003C16.4478 5.5667 14.3946 3.54013 11.4451 3.56253C10.6873 3.56826 9.71598 3.75862 9.28629 3.98571ZM9.26025 6.26045C8.4803 7.04039 8.37483 7.30732 8.37483 8.50003C8.37483 9.69274 8.4803 9.95966 9.26025 10.7396C10.0402 11.5196 10.3071 11.625 11.4998 11.625C12.6925 11.625 12.9595 11.5196 13.7394 10.7396C14.5194 9.95966 14.6248 9.69274 14.6248 8.50003C14.6248 7.30732 14.5194 7.04039 13.7394 6.26045C12.9595 5.4805 12.6925 5.37503 11.4998 5.37503C10.3071 5.37503 10.0402 5.4805 9.26025 6.26045Z" fill="white"/>
</svg>
