<svg width="11" height="11" viewBox="0 0 11 11" fill="none" xmlns="http://www.w3.org/2000/svg">
<path d="M6.72222 4.27778V6.72222H4.27778V4.27778H6.72222ZM7.94444 4.27778H11V6.72222H7.94444V4.27778ZM6.72222 11H4.27778V7.94444H6.72222V11ZM7.94444 11V7.94444H11V10.3889C11 10.551 10.9356 10.7064 10.821 10.821C10.7064 10.9356 10.551 11 10.3889 11H7.94444ZM6.72222 0V3.05556H4.27778V0H6.72222ZM7.94444 0H10.3889C10.551 0 10.7064 0.0643847 10.821 0.17899C10.9356 0.293596 11 0.449034 11 0.611111V3.05556H7.94444V0ZM3.05556 4.27778V6.72222H0V4.27778H3.05556ZM3.05556 11H0.611111C0.449034 11 0.293596 10.9356 0.17899 10.821C0.0643847 10.7064 0 10.551 0 10.3889V7.94444H3.05556V11ZM3.05556 0V3.05556H0V0.611111C0 0.449034 0.0643847 0.293596 0.17899 0.17899C0.293596 0.0643847 0.449034 0 0.611111 0H3.05556Z" fill="#FF3B30"/>
</svg>
