<svg width="25" height="25" viewBox="0 0 25 25" fill="none" xmlns="http://www.w3.org/2000/svg">
<path d="M6.27935 0.927721C3.90631 1.22557 1.90924 2.666 0.815485 4.85839C-0.532171 7.55858 -0.16596 10.791 1.74322 13.1348C2.15338 13.6377 11.9727 23.9648 12.0899 24.0185C12.1583 24.0478 12.2999 24.0869 12.4024 24.1015C12.8516 24.1748 12.6075 24.4092 18.0274 18.6865C20.7862 15.7812 23.1348 13.2812 23.2569 13.1348C25.4053 10.5029 25.5713 6.79686 23.667 3.97948C22.5928 2.39256 20.9864 1.33299 19.1358 0.99608C18.4522 0.869127 17.3145 0.883776 16.6504 1.02049C15.1368 1.33788 14.0528 1.94335 12.9053 3.11522L12.5049 3.52538L11.9776 2.99315C10.8985 1.92381 9.7608 1.3037 8.35943 1.02049C7.82232 0.913073 6.77252 0.864244 6.27935 0.927721Z" fill="#FF3B30"/>
</svg>
