<svg width="25" height="25" viewBox="0 0 25 25" fill="none" xmlns="http://www.w3.org/2000/svg">
<path d="M5.19795 4.15646C4.99073 4.15651 4.78823 4.21837 4.61635 4.33411C4.44446 4.44985 4.311 4.61423 4.23303 4.80622C4.15505 4.99821 4.1361 5.2091 4.17861 5.41191C4.22111 5.61473 4.32313 5.80026 4.47163 5.94479L11.0268 12.5L4.47163 19.0551C4.37166 19.1511 4.29185 19.2661 4.23686 19.3933C4.18188 19.5205 4.15283 19.6574 4.15142 19.796C4.15001 19.9346 4.17627 20.0721 4.22865 20.2004C4.28104 20.3287 4.3585 20.4453 4.45649 20.5433C4.55449 20.6413 4.67106 20.7187 4.79937 20.7711C4.92768 20.8235 5.06515 20.8498 5.20374 20.8483C5.34232 20.8469 5.47923 20.8179 5.60645 20.7629C5.73366 20.7079 5.84863 20.6281 5.94462 20.5281L12.4998 13.9729L19.055 20.5281C19.1509 20.6281 19.2659 20.7079 19.3931 20.7629C19.5203 20.8179 19.6573 20.8469 19.7958 20.8483C19.9344 20.8498 20.0719 20.8235 20.2002 20.7711C20.3285 20.7187 20.4451 20.6413 20.5431 20.5433C20.6411 20.4453 20.7185 20.3287 20.7709 20.2004C20.8233 20.0721 20.8496 19.9346 20.8482 19.796C20.8468 19.6574 20.8177 19.5205 20.7627 19.3933C20.7077 19.2661 20.6279 19.1511 20.5279 19.0551L13.9728 12.5L20.5279 5.94479C20.6785 5.79847 20.7813 5.6101 20.8229 5.40435C20.8645 5.1986 20.843 4.98507 20.7612 4.79176C20.6794 4.59844 20.5411 4.43434 20.3644 4.32098C20.1877 4.20762 19.9809 4.15027 19.7711 4.15646C19.5005 4.16452 19.2436 4.27763 19.055 4.47181L12.4998 11.027L5.94462 4.47181C5.84754 4.37202 5.73146 4.2927 5.60321 4.23854C5.47497 4.18438 5.33717 4.15647 5.19795 4.15646Z" fill="black"/>
</svg>
