<svg width="25" height="25" viewBox="0 0 25 25" fill="none" xmlns="http://www.w3.org/2000/svg">
<path d="M6.27911 0.927721C3.90606 1.22557 1.90899 2.666 0.815241 4.85839C-0.532415 7.55858 -0.166204 10.791 1.74298 13.1348C2.15313 13.6377 11.9725 23.9648 12.0897 24.0185C12.158 24.0478 12.2996 24.0869 12.4022 24.1015C12.8514 24.1748 12.6072 24.4092 18.0272 18.6865C20.7859 15.7812 23.1346 13.2812 23.2566 13.1348C25.4051 10.5029 25.5711 6.79686 23.6668 3.97948C22.5926 2.39256 20.9861 1.33299 19.1356 0.99608C18.452 0.869127 17.3143 0.883776 16.6502 1.02049C15.1365 1.33788 14.0525 1.94335 12.9051 3.11522L12.5047 3.52538L11.9773 2.99315C10.8982 1.92381 9.76055 1.3037 8.35919 1.02049C7.82208 0.913073 6.77227 0.864244 6.27911 0.927721ZM8.30059 2.83202C8.78399 2.95897 9.47735 3.27147 9.9168 3.56444C10.0926 3.68163 10.6199 4.16991 11.1082 4.66796C12.0066 5.58104 12.1824 5.71288 12.5096 5.71288C12.8318 5.70799 13.0418 5.55174 13.7938 4.76073C14.8143 3.69139 15.3611 3.29589 16.2986 2.95897C17.4754 2.53905 18.95 2.61229 20.1023 3.15428C21.0984 3.62792 22.0701 4.59471 22.6072 5.66405C23.6961 7.81737 23.3445 10.415 21.7234 12.1826C21.5525 12.3682 19.4041 14.6387 16.9578 17.2217L12.4998 21.9238L8.0711 17.2461C2.78301 11.6699 3.08087 11.9922 2.74395 11.4795C0.878718 8.64256 1.86505 4.68749 4.80938 3.21288C5.23419 2.99803 5.52715 2.89549 6.0545 2.77831C6.62579 2.65135 7.70001 2.67577 8.30059 2.83202Z" fill="white"/>
</svg>
