<svg width="12" height="13" viewBox="0 0 12 13" fill="none" xmlns="http://www.w3.org/2000/svg">
<path d="M11.05 13H0.65C0.477609 13 0.312279 12.9315 0.190381 12.8096C0.0684819 12.6877 0 12.5224 0 12.35V0.65C0 0.477609 0.0684819 0.312279 0.190381 0.190381C0.312279 0.0684819 0.477609 0 0.65 0H11.05C11.2224 0 11.3877 0.0684819 11.5096 0.190381C11.6315 0.312279 11.7 0.477609 11.7 0.65V12.35C11.7 12.5224 11.6315 12.6877 11.5096 12.8096C11.3877 12.9315 11.2224 13 11.05 13ZM3.25 3.25V4.55H8.45V3.25H3.25ZM3.25 5.85V7.15H8.45V5.85H3.25ZM3.25 8.45V9.75H8.45V8.45H3.25Z" fill="#FF3B30"/>
</svg>
