<svg width="25" height="24" viewBox="0 0 25 24" fill="none" xmlns="http://www.w3.org/2000/svg">
<path d="M2.87935 0.855326C2.2425 1.03825 1.63276 1.39732 1.15174 1.87834C0.636844 2.39324 0.318422 2.95556 0.135499 3.68048C0.00677494 4.18859 0 4.46637 0 13.3212C0 22.0744 0.00677494 22.4538 0.128724 22.6774C0.304872 23.0229 0.697819 23.2329 1.09076 23.1991C1.38209 23.172 1.65308 23.0026 4.34274 21.0785C5.96195 19.9268 7.45921 18.8902 7.68278 18.7818L8.08928 18.5786L14.9387 18.5447C22.5267 18.504 21.9711 18.5379 22.9332 18.0569C23.5023 17.7656 24.2882 16.9594 24.5795 16.3496C25.0063 15.4689 24.9995 15.6586 24.9995 8.24678C24.9995 0.726603 25.0334 1.2144 24.532 0.882425L24.3017 0.726603L13.7938 0.733377C4.05141 0.733377 3.25874 0.746927 2.87935 0.855326ZM22.9535 8.93783L22.9332 15.1233L22.7502 15.4689C22.5538 15.8483 22.2895 16.0989 21.8559 16.3293L21.5782 16.4783L14.7355 16.519C9.15294 16.5461 7.83183 16.5732 7.55406 16.6477C6.89011 16.8374 6.10422 17.3184 4.08529 18.7683L2.03248 20.2384V12.2779C2.03248 4.50024 2.03248 4.31732 2.16798 3.96502C2.3238 3.5382 2.74385 3.09783 3.18422 2.90136C3.48909 2.76586 3.58394 2.75908 13.2315 2.75908H22.967L22.9535 8.93783Z" fill="white"/>
<path d="M7.01878 6.28209C6.78843 6.35662 6.52421 6.58697 6.39548 6.83764C6.18546 7.24414 6.35483 7.81323 6.7681 8.091L6.99845 8.24683H13.1772H19.3559L19.5863 8.091C20.2096 7.67773 20.196 6.86474 19.5592 6.39049C19.3695 6.24822 19.3424 6.24822 13.2924 6.23467C9.95233 6.22789 7.12718 6.24822 7.01878 6.28209Z" fill="white"/>
<path d="M7.01878 11.0245C6.78843 11.0991 6.52421 11.3294 6.39548 11.5801C6.18546 11.9866 6.35483 12.5557 6.7681 12.8334L6.99845 12.9893H13.1772H19.3559L19.5863 12.8334C20.2096 12.4202 20.196 11.6072 19.5592 11.1329C19.3695 10.9907 19.3424 10.9907 13.2924 10.9771C9.95233 10.9703 7.12718 10.9907 7.01878 11.0245Z" fill="white"/>
</svg>
