<svg width="25" height="25" viewBox="0 0 25 25" fill="none" xmlns="http://www.w3.org/2000/svg">
<path d="M11.3524 0.834965C8.46669 1.10352 5.58095 2.59766 3.67176 4.80957C-0.962028 10.1904 0.121957 18.3057 6.00575 22.2412C11.3768 25.8301 18.6474 24.375 22.2411 18.9941C26.1767 13.0957 24.0136 5.11719 17.6269 1.97266C15.7226 1.03028 13.5204 0.634769 11.3524 0.834965ZM13.4813 2.39746C15.4491 2.59766 17.3144 3.35449 18.8671 4.58008C19.0575 4.72656 19.4433 5.08301 19.7265 5.3711C20.9569 6.61133 21.831 8.12012 22.2899 9.79492C22.5634 10.791 22.6317 11.3184 22.6317 12.5C22.6317 13.2861 22.6073 13.6816 22.539 14.082C21.4989 20.3516 15.244 24.1162 9.20399 22.1143C8.67665 21.9385 7.68544 21.4697 7.17763 21.1523C5.537 20.1416 4.20399 18.667 3.36903 16.9385C2.2118 14.541 2.03114 11.8457 2.86122 9.32617C3.87196 6.25488 6.26942 3.85743 9.32606 2.86133C10.7079 2.41211 12.1142 2.25586 13.4813 2.39746Z" fill="white"/>
<path d="M12.1337 6.35744C11.8309 6.5381 11.7186 6.77736 11.7186 7.28517V7.70509L11.4647 7.76369C11.3231 7.79786 11.0253 7.91017 10.8056 8.01271C9.58974 8.58888 9.10146 9.79493 9.5458 11.1133C9.70693 11.5869 9.92177 11.919 10.288 12.2608C10.6688 12.6123 11.1718 12.8662 12.1581 13.208C13.5106 13.6768 13.9013 13.9307 14.0136 14.4141C14.0917 14.7363 14.0526 15.0879 13.9208 15.2783C13.5058 15.8594 12.1434 16.001 11.3768 15.5371C11.1229 15.3857 10.9374 15.0684 10.9374 14.79C10.9374 14.4287 10.5517 14.0625 10.1708 14.0625C9.79482 14.0625 9.46279 14.3311 9.39443 14.6826C9.34072 14.9707 9.44814 15.5078 9.63857 15.8984C9.94619 16.5137 10.6981 17.0703 11.4501 17.2412L11.7089 17.2998L11.7284 17.7783C11.7382 18.1689 11.7626 18.2813 11.8456 18.3936C12.202 18.8721 12.7977 18.8721 13.1542 18.3936C13.2372 18.2813 13.2616 18.1689 13.2714 17.7783L13.2909 17.3047L13.6083 17.2217C14.3261 17.0313 15.0145 16.543 15.3319 15.9961C15.7177 15.3223 15.7128 14.3555 15.327 13.54C15.1122 13.0811 14.5653 12.5488 14.038 12.2705C13.8231 12.1582 13.286 11.9434 12.8466 11.792C11.3329 11.2744 11.0253 11.04 10.9569 10.3565C10.8935 9.7754 11.2255 9.40919 11.953 9.24806C12.9003 9.0381 13.9452 9.40919 14.038 9.99513C14.0526 10.0977 14.077 10.2588 14.0917 10.3516C14.1112 10.4541 14.1845 10.5859 14.3016 10.6983C14.8095 11.2061 15.6249 10.8447 15.6249 10.1123C15.6249 9.24318 15.078 8.43263 14.2089 8.02247C13.9794 7.91017 13.6767 7.79786 13.5399 7.76369L13.2811 7.70509V7.29494C13.2811 6.80177 13.2079 6.60646 12.9686 6.42091C12.7196 6.23048 12.3974 6.20607 12.1337 6.35744Z" fill="white"/>
</svg>
