<svg width="25" height="24" viewBox="0 0 25 24" fill="none" xmlns="http://www.w3.org/2000/svg">
<path d="M2.87935 0.855326C2.2425 1.03825 1.63276 1.39732 1.15174 1.87834C0.636844 2.39324 0.318422 2.95556 0.135499 3.68048C0.00677495 4.18859 0 4.46637 0 13.3212C0 22.0744 0.00677493 22.4538 0.128724 22.6774C0.304872 23.0229 0.697819 23.2329 1.09076 23.1991C1.38209 23.172 1.65308 23.0026 4.34274 21.0785C5.96195 19.9268 7.45921 18.8902 7.68278 18.7818L8.08928 18.5786L14.9387 18.5447C22.5267 18.504 21.9711 18.5379 22.9332 18.0569C23.5023 17.7656 24.2882 16.9594 24.5795 16.3496C25.0063 15.4689 24.9995 15.6586 24.9995 8.24678C24.9995 0.726603 25.0334 1.2144 24.532 0.882425L24.3017 0.726603L13.7938 0.733377C4.05141 0.733377 3.25874 0.746927 2.87935 0.855326Z" fill="#FF3B30"/>
<path d="M7.01884 6.28209C6.78849 6.35662 6.52427 6.58697 6.39554 6.83764C6.18552 7.24414 6.35489 7.81323 6.76817 8.091L6.99851 8.24683H13.1773H19.356L19.5863 8.091C20.2096 7.67773 20.1961 6.86474 19.5592 6.39049C19.3696 6.24822 19.3425 6.24822 13.2924 6.23467C9.95239 6.22789 7.12724 6.24822 7.01884 6.28209Z" fill="white"/>
<path d="M7.01884 11.0245C6.78849 11.0991 6.52427 11.3294 6.39554 11.5801C6.18552 11.9866 6.35489 12.5557 6.76817 12.8334L6.99851 12.9893H13.1773H19.356L19.5863 12.8334C20.2096 12.4202 20.1961 11.6072 19.5592 11.1329C19.3696 10.9907 19.3425 10.9907 13.2924 10.9771C9.95239 10.9703 7.12724 10.9907 7.01884 11.0245Z" fill="white"/>
</svg>
