<svg width="14" height="8" viewBox="0 0 14 8" fill="none" xmlns="http://www.w3.org/2000/svg">
<path d="M13.1806 6.53124C13.156 6.4328 12.5443 5.80702 10.2943 3.55351C8.72631 1.98202 7.38686 0.670693 7.32358 0.639052C7.1478 0.554677 6.98256 0.540615 6.79975 0.589834C6.64155 0.632021 6.44819 0.818349 3.79037 3.46913C2.22944 5.02655 0.918108 6.35194 0.879436 6.41171C0.664983 6.75624 0.81967 7.25194 1.20287 7.44882C1.36811 7.53319 1.68451 7.53671 1.84272 7.45936C1.906 7.42772 2.99233 6.36952 4.25795 5.1039C5.85756 3.5078 6.59936 2.79061 6.69076 2.75194C6.85951 2.68515 7.14076 2.68515 7.30951 2.75194C7.40092 2.79061 8.14272 3.5078 9.74233 5.1039C11.008 6.36952 12.0943 7.42772 12.1576 7.45936C12.3158 7.53671 12.6322 7.53319 12.7974 7.44882C13.1384 7.27304 13.2896 6.91093 13.1806 6.53124Z" fill="#FF3B30"/>
</svg>
