<svg width="14" height="8" viewBox="0 0 14 8" fill="none" xmlns="http://www.w3.org/2000/svg">
<path d="M0.819392 1.46876C0.844001 1.5672 1.45572 2.19298 3.70572 4.44649C5.27369 6.01798 6.61314 7.32931 6.67642 7.36095C6.8522 7.44532 7.01744 7.45939 7.20025 7.41017C7.35845 7.36798 7.55181 7.18165 10.2096 4.53087C11.7706 2.97345 13.0819 1.64806 13.1206 1.58829C13.335 1.24376 13.1803 0.748057 12.7971 0.551182C12.6319 0.466807 12.3155 0.463292 12.1573 0.540636C12.094 0.572276 11.0077 1.63048 9.74205 2.8961C8.14244 4.4922 7.40064 5.20939 7.30924 5.24806C7.14049 5.31485 6.85924 5.31485 6.69049 5.24806C6.59908 5.20939 5.85728 4.4922 4.25767 2.8961C2.99205 1.63048 1.90572 0.572276 1.84244 0.540636C1.68424 0.463292 1.36783 0.466807 1.20259 0.551182C0.861579 0.726964 0.710407 1.08907 0.819392 1.46876Z" fill="#FF3B30"/>
</svg>
